<?xml version="1.0"?><svg width="24" height="24" xmlns="http://www.w3.org/2000/svg" xmlns:svg="http://www.w3.org/2000/svg"><g class="layer"><title>Layer 1</title><path clip-rule="evenodd" d="m12.02,0.32c-6.51,0 -11.77,5.3 -11.77,11.86c0,5.24 3.37,9.68 8.05,11.25c0.58,0.12 0.8,-0.26 0.8,-0.57c0,-0.28 -0.02,-1.22 -0.02,-2.2c-3.27,0.71 -3.96,-1.41 -3.96,-1.41c-0.53,-1.37 -1.31,-1.73 -1.31,-1.73c-1.07,-0.73 0.08,-0.73 0.08,-0.73c1.19,0.08 1.81,1.22 1.81,1.22c1.05,1.8 2.75,1.3 3.43,0.98c0.1,-0.77 0.41,-1.3 0.74,-1.59c-2.61,-0.27 -5.36,-1.3 -5.36,-5.85c0,-1.3 0.47,-2.36 1.21,-3.18c-0.12,-0.29 -0.53,-1.51 0.12,-3.14c0,0 1,-0.31 3.24,1.22a11.32,11.32 0 0 1 2.94,-0.39c1,0 2.01,0.14 2.94,0.39c2.24,-1.53 3.23,-1.22 3.23,-1.22c0.64,1.63 0.23,2.85 0.12,3.14c0.76,0.82 1.21,1.88 1.21,3.18c0,4.55 -2.75,5.56 -5.38,5.85c0.43,0.37 0.8,1.08 0.8,2.2c0,1.59 -0.02,2.87 -0.02,3.26c0,0.32 0.21,0.69 0.8,0.57c4.68,-1.57 8.05,-6.01 8.05,-11.25c0.02,-6.56 -5.26,-11.86 -11.75,-11.86z" fill="#fff" fill-rule="evenodd" id="svg_1"/></g></svg>
